<svg xmlns="http://www.w3.org/2000/svg" xmlns:xlink="http://www.w3.org/1999/xlink" width="500" zoomAndPan="magnify" viewBox="0 0 375 374.999991" height="500" preserveAspectRatio="xMidYMid meet" version="1.0"><defs><clipPath id="348b6b31b5"><path d="M 84 42.136719 L 337.5 42.136719 L 337.5 211 L 84 211 Z M 84 42.136719 " clip-rule="nonzero"/></clipPath><clipPath id="597ecddfc0"><path d="M 37.5 102 L 292 102 L 292 333.136719 L 37.5 333.136719 Z M 37.5 102 " clip-rule="nonzero"/></clipPath></defs><g clip-path="url(#348b6b31b5)"><path fill="#c1ff72" d="M 337.125 104.855469 L 337.125 154.347656 C 337.125 179.332031 322.539062 200.902344 301.421875 210.988281 L 301.421875 165.539062 C 301.421875 125.257812 268.671875 92.476562 228.421875 92.476562 L 100.542969 92.476562 C 95.148438 92.476562 89.890625 93.066406 84.828125 94.183594 C 89.882812 64.628906 115.605469 42.136719 146.578125 42.136719 L 274.457031 42.136719 C 309.066406 42.136719 337.125 70.210938 337.125 104.855469 Z M 337.125 104.855469 " fill-opacity="1" fill-rule="nonzero"/></g><g clip-path="url(#597ecddfc0)"><path fill="#00bf63" d="M 228.421875 102.816406 L 100.53125 102.816406 C 65.933594 102.816406 37.875 130.90625 37.875 165.539062 L 37.875 215.03125 C 37.875 249.671875 65.933594 277.75 100.53125 277.75 L 106.070312 277.75 L 106.070312 333.125 L 114.003906 325.183594 C 144.347656 294.8125 185.507812 277.75 228.410156 277.75 C 263.019531 277.75 291.070312 249.664062 291.070312 215.03125 L 291.070312 165.539062 C 291.082031 130.90625 263.03125 102.816406 228.421875 102.816406 Z M 228.421875 102.816406 " fill-opacity="1" fill-rule="nonzero"/></g></svg>