<svg xmlns="http://www.w3.org/2000/svg" xmlns:xlink="http://www.w3.org/1999/xlink" width="500" zoomAndPan="magnify" viewBox="0 0 375 374.999991" height="500" preserveAspectRatio="xMidYMid meet" version="1.0"><defs><g/><clipPath id="df057521a7"><path d="M 117 32.464844 L 290 32.464844 L 290 149 L 117 149 Z M 117 32.464844 " clip-rule="nonzero"/></clipPath><clipPath id="13d628f4e8"><path d="M 84.652344 74 L 259 74 L 259 231.964844 L 84.652344 231.964844 Z M 84.652344 74 " clip-rule="nonzero"/></clipPath></defs><g clip-path="url(#df057521a7)"><path fill="#c1ff72" d="M 289.902344 75.464844 L 289.902344 109.394531 C 289.902344 126.523438 279.910156 141.3125 265.445312 148.222656 L 265.445312 117.066406 C 265.445312 89.453125 243.007812 66.976562 215.4375 66.976562 L 127.832031 66.976562 C 124.140625 66.976562 120.535156 67.382812 117.070312 68.148438 C 120.53125 47.886719 138.152344 32.464844 159.371094 32.464844 L 246.972656 32.464844 C 270.679688 32.464844 289.902344 51.714844 289.902344 75.464844 Z M 289.902344 75.464844 " fill-opacity="1" fill-rule="nonzero"/></g><g clip-path="url(#13d628f4e8)"><path fill="#00bf63" d="M 215.4375 74.066406 L 127.828125 74.066406 C 104.125 74.066406 84.902344 93.324219 84.902344 117.066406 L 84.902344 150.996094 C 84.902344 174.746094 104.125 193.996094 127.828125 193.996094 L 131.621094 193.996094 L 131.621094 231.957031 L 137.054688 226.515625 C 157.839844 205.691406 186.035156 193.996094 215.429688 193.996094 C 239.136719 193.996094 258.351562 174.738281 258.351562 150.996094 L 258.351562 117.066406 C 258.359375 93.324219 239.144531 74.066406 215.4375 74.066406 Z M 215.4375 74.066406 " fill-opacity="1" fill-rule="nonzero"/></g><path fill="#ffffff" d="M 180.492188 128.96875 C 178.308594 126.785156 175.894531 124.371094 173.710938 122.1875 C 169.082031 117.558594 160.664062 118.097656 154.945312 123.8125 C 150.378906 128.382812 144.773438 133.988281 140.207031 138.554688 C 134.488281 144.273438 133.953125 152.691406 138.582031 157.320312 C 140.765625 159.503906 143.179688 161.917969 145.363281 164.101562 C 149.992188 168.730469 158.410156 168.191406 164.128906 162.476562 C 167.367188 159.234375 171.132812 155.46875 174.679688 151.925781 C 175.59375 151.007812 175.59375 149.519531 174.679688 148.605469 C 173.761719 147.6875 172.273438 147.6875 171.359375 148.605469 C 167.8125 152.148438 164.046875 155.914062 160.808594 159.15625 C 157.09375 162.867188 151.691406 163.785156 148.683594 160.78125 C 148.683594 160.78125 141.902344 154 141.902344 154 C 138.894531 150.992188 139.8125 145.585938 143.527344 141.875 C 148.09375 137.308594 153.699219 131.703125 158.265625 127.136719 C 161.980469 123.421875 167.386719 122.503906 170.390625 125.507812 C 170.390625 125.507812 177.171875 132.289062 177.171875 132.289062 C 178.089844 133.207031 179.578125 133.207031 180.492188 132.289062 C 181.410156 131.375 181.410156 129.886719 180.492188 128.96875 Z M 160.847656 135.050781 C 163.03125 137.238281 165.445312 139.648438 167.628906 141.835938 C 172.257812 146.460938 180.679688 145.925781 186.394531 140.210938 C 190.960938 135.640625 196.566406 130.035156 201.132812 125.46875 C 206.851562 119.75 207.386719 111.332031 202.757812 106.703125 C 200.574219 104.519531 198.160156 102.105469 195.976562 99.921875 C 191.347656 95.292969 182.929688 95.828125 177.210938 101.546875 C 173.972656 104.789062 170.207031 108.550781 166.660156 112.097656 C 165.746094 113.015625 165.746094 114.503906 166.660156 115.417969 C 167.578125 116.335938 169.066406 116.335938 169.980469 115.417969 C 173.527344 111.875 177.292969 108.109375 180.53125 104.867188 C 184.246094 101.15625 189.652344 100.238281 192.65625 103.242188 C 192.65625 103.242188 199.4375 110.023438 199.4375 110.023438 C 202.445312 113.03125 201.527344 118.4375 197.8125 122.148438 C 193.246094 126.714844 187.640625 132.320312 183.074219 136.886719 C 179.359375 140.601562 173.957031 141.519531 170.949219 138.515625 C 170.949219 138.515625 164.167969 131.730469 164.167969 131.730469 C 163.253906 130.816406 161.761719 130.816406 160.847656 131.730469 C 159.933594 132.648438 159.933594 134.136719 160.847656 135.050781 Z M 160.847656 135.050781 " fill-opacity="1" fill-rule="evenodd"/><g fill="#00bf63" fill-opacity="1"><g transform="translate(0.0000045, 314.732385)"><g><path d="M 61.867188 -49.894531 L 52.246094 -16.75 L 38.847656 -49.324219 L 35.210938 -49.324219 L 22.097656 -16.679688 L 12.257812 -49.894531 L 0.855469 -49.894531 L 16.535156 0 L 26.160156 0 L 36.992188 -27.941406 L 48.113281 0 L 57.734375 0 L 73.128906 -49.894531 Z M 61.867188 -49.894531 "/></g></g></g><g fill="#00bf63" fill-opacity="1"><g transform="translate(74.199513, 314.732385)"><g><path d="M 27.015625 -39.34375 C 22.382812 -39.34375 18.316406 -37.632812 15.394531 -34.855469 L 15.394531 -52.316406 L 4.988281 -52.316406 L 4.988281 0 L 15.394531 0 L 15.394531 -20.171875 C 15.394531 -26.445312 18.816406 -30.222656 24.019531 -30.222656 C 28.652344 -30.222656 30.71875 -27.371094 30.71875 -21.597656 L 30.71875 0 L 41.125 0 L 41.125 -23.378906 C 41.125 -33.144531 35.710938 -39.34375 27.015625 -39.34375 Z M 27.015625 -39.34375 "/></g></g></g><g fill="#00bf63" fill-opacity="1"><g transform="translate(119.888173, 314.732385)"><g><path d="M 36.351562 -38.488281 L 35.28125 -34.855469 C 31.933594 -37.777344 27.585938 -39.558594 22.59375 -39.558594 C 11.046875 -39.558594 2.421875 -30.863281 2.421875 -19.246094 C 2.421875 -7.625 11.046875 1.140625 22.59375 1.140625 C 27.511719 1.140625 31.789062 -0.570312 35.066406 -3.492188 L 35.996094 0 L 44.121094 0 L 44.121094 -38.488281 Z M 23.449219 -8.695312 C 17.390625 -8.695312 12.972656 -13.257812 12.972656 -19.246094 C 12.972656 -25.304688 17.390625 -29.792969 23.449219 -29.792969 C 29.507812 -29.792969 33.929688 -25.304688 33.929688 -19.246094 C 33.929688 -13.1875 29.507812 -8.695312 23.449219 -8.695312 Z M 23.449219 -8.695312 "/></g></g></g><g fill="#00bf63" fill-opacity="1"><g transform="translate(169.069406, 314.732385)"><g><path d="M 23.804688 -9.265625 C 19.957031 -9.265625 17.820312 -11.40625 17.820312 -15.109375 L 17.820312 -30.078125 L 28.296875 -30.078125 L 28.296875 -38.488281 L 17.675781 -38.488281 L 17.675781 -48.46875 L 15.679688 -48.46875 L 0.5 -32.359375 L 0.5 -30.078125 L 7.414062 -30.078125 L 7.414062 -13.683594 C 7.414062 -5.203125 12.617188 0 21.097656 0 L 28.511719 0 L 28.511719 -9.265625 Z M 23.804688 -9.265625 "/></g></g></g><g fill="#00bf63" fill-opacity="1"><g transform="translate(199.718583, 314.732385)"><g><path d="M 4.347656 -14.96875 L 27.585938 -14.96875 L 27.585938 -25.019531 L 4.347656 -25.019531 Z M 4.347656 -14.96875 "/></g></g></g><g fill="#00bf63" fill-opacity="1"><g transform="translate(231.722031, 314.732385)"><g><path d="M 16.464844 -9.980469 L 16.464844 -49.894531 L 5.703125 -49.894531 L 5.703125 0 L 35.636719 0 L 35.636719 -9.980469 Z M 16.464844 -9.980469 "/></g></g></g><g fill="#00bf63" fill-opacity="1"><g transform="translate(268.928694, 314.732385)"><g><path d="M 4.988281 -43.621094 L 15.324219 -43.621094 L 15.324219 -53.242188 L 4.988281 -53.242188 Z M 4.988281 0 L 15.394531 0 L 15.394531 -38.488281 L 4.988281 -38.488281 Z M 4.988281 0 "/></g></g></g><g fill="#00bf63" fill-opacity="1"><g transform="translate(289.313944, 314.732385)"><g><path d="M 26.871094 -39.34375 C 21.667969 -39.34375 17.035156 -37.136719 14.113281 -33.714844 L 12.117188 -38.488281 L 4.988281 -38.488281 L 4.988281 0 L 15.394531 0 L 15.394531 -20.171875 C 15.394531 -26.371094 18.675781 -30.222656 24.019531 -30.222656 C 28.511719 -30.222656 30.71875 -27.441406 30.71875 -21.597656 L 30.71875 0 L 41.125 0 L 41.125 -23.308594 C 41.125 -33.074219 35.636719 -39.34375 26.871094 -39.34375 Z M 26.871094 -39.34375 "/></g></g></g><g fill="#00bf63" fill-opacity="1"><g transform="translate(335.002603, 314.732385)"><g><path d="M 40.273438 0 L 25.875 -20.101562 L 38.917969 -38.488281 L 26.941406 -38.488281 L 15.394531 -21.382812 L 15.394531 -52.316406 L 4.988281 -52.316406 L 4.988281 0 L 15.394531 0 L 15.394531 -18.390625 L 27.65625 0 Z M 40.273438 0 "/></g></g></g><g fill="#161920" fill-opacity="1"><g transform="translate(11.135195, 354.451153)"><g><path d="M 4.332031 -2.625 L 4.332031 -13.128906 L 1.5 -13.128906 L 1.5 0 L 9.378906 0 L 9.378906 -2.625 Z M 4.332031 -2.625 "/></g></g></g><g fill="#161920" fill-opacity="1"><g transform="translate(35.93663, 354.451153)"><g><path d="M 1.5 0 L 4.332031 0 L 4.332031 -13.128906 L 1.5 -13.128906 Z M 1.5 0 "/></g></g></g><g fill="#161920" fill-opacity="1"><g transform="translate(56.799939, 354.451153)"><g><path d="M 9.8125 -13.128906 L 9.8125 -5.121094 L 4.050781 -13.128906 L 1.5 -13.128906 L 1.5 0 L 4.277344 0 L 4.277344 -8.199219 L 10.222656 0 L 12.605469 0 L 12.605469 -13.128906 Z M 9.8125 -13.128906 "/></g></g></g><g fill="#161920" fill-opacity="1"><g transform="translate(85.914551, 354.451153)"><g><path d="M 12.4375 0 L 7.484375 -6.828125 L 11.949219 -13.128906 L 8.648438 -13.128906 L 4.332031 -7.054688 L 4.332031 -13.128906 L 1.5 -13.128906 L 1.5 0 L 4.332031 0 L 4.332031 -6.398438 L 8.964844 0 Z M 12.4375 0 "/></g></g></g><g fill="#161920" fill-opacity="1"><g transform="translate(113.228883, 354.451153)"><g/></g></g><g fill="#161920" fill-opacity="1"><g transform="translate(132.723249, 354.451153)"><g><path d="M 7.257812 -6.847656 L 7.257812 -4.671875 L 11.199219 -4.671875 C 10.710938 -3.320312 9.230469 -2.417969 7.539062 -2.417969 C 5.175781 -2.417969 3.621094 -4.109375 3.621094 -6.546875 C 3.621094 -9.003906 5.214844 -10.691406 7.539062 -10.691406 C 9.191406 -10.691406 10.578125 -9.8125 11.140625 -8.402344 L 14.070312 -8.402344 C 13.449219 -11.347656 10.75 -13.414062 7.484375 -13.414062 C 3.601562 -13.414062 0.730469 -10.46875 0.730469 -6.546875 C 0.730469 -2.605469 3.675781 0.300781 7.539062 0.300781 C 11.480469 0.300781 14.238281 -2.738281 14.238281 -6.847656 Z M 7.257812 -6.847656 "/></g></g></g><g fill="#161920" fill-opacity="1"><g transform="translate(162.681735, 354.451153)"><g><path d="M 4.332031 -2.625 L 4.332031 -5.328125 L 8.890625 -5.328125 L 8.890625 -7.898438 L 4.332031 -7.898438 L 4.332031 -10.503906 L 9.378906 -10.503906 L 9.378906 -13.128906 L 1.5 -13.128906 L 1.5 0 L 9.585938 0 L 9.585938 -2.625 Z M 4.332031 -2.625 "/></g></g></g><g fill="#161920" fill-opacity="1"><g transform="translate(188.177027, 354.451153)"><g><path d="M 9.8125 -13.128906 L 9.8125 -5.121094 L 4.050781 -13.128906 L 1.5 -13.128906 L 1.5 0 L 4.277344 0 L 4.277344 -8.199219 L 10.222656 0 L 12.605469 0 L 12.605469 -13.128906 Z M 9.8125 -13.128906 "/></g></g></g><g fill="#161920" fill-opacity="1"><g transform="translate(217.291633, 354.451153)"><g><path d="M 4.332031 -2.625 L 4.332031 -5.328125 L 8.890625 -5.328125 L 8.890625 -7.898438 L 4.332031 -7.898438 L 4.332031 -10.503906 L 9.378906 -10.503906 L 9.378906 -13.128906 L 1.5 -13.128906 L 1.5 0 L 9.585938 0 L 9.585938 -2.625 Z M 4.332031 -2.625 "/></g></g></g><g fill="#161920" fill-opacity="1"><g transform="translate(242.786925, 354.451153)"><g><path d="M 8.722656 0 L 11.894531 0 L 8.984375 -4.953125 C 10.449219 -5.664062 11.386719 -7.054688 11.386719 -8.777344 C 11.386719 -11.3125 9.417969 -13.128906 6.789062 -13.128906 L 1.5 -13.128906 L 1.5 0 L 4.332031 0 L 4.332031 -4.464844 L 6.152344 -4.464844 Z M 4.332031 -10.503906 L 6.601562 -10.503906 C 7.804688 -10.503906 8.496094 -9.773438 8.496094 -8.796875 C 8.496094 -7.804688 7.804688 -7.089844 6.601562 -7.089844 L 4.332031 -7.089844 Z M 4.332031 -10.503906 "/></g></g></g><g fill="#161920" fill-opacity="1"><g transform="translate(270.194998, 354.451153)"><g><path d="M 10.203125 0 L 13.300781 0 L 7.992188 -13.128906 L 5.308594 -13.128906 L 0.148438 0 L 3.171875 0 L 4.070312 -2.476562 L 9.285156 -2.476562 Z M 6.679688 -9.660156 L 8.402344 -4.953125 L 4.953125 -4.953125 Z M 6.679688 -9.660156 "/></g></g></g><g fill="#161920" fill-opacity="1"><g transform="translate(298.672003, 354.451153)"><g><path d="M 10.542969 -13.128906 L 0.394531 -13.128906 L 0.394531 -10.484375 L 4.050781 -10.484375 L 4.050781 0 L 6.882812 0 L 6.882812 -10.484375 L 10.542969 -10.484375 Z M 10.542969 -13.128906 "/></g></g></g><g fill="#161920" fill-opacity="1"><g transform="translate(324.636113, 354.451153)"><g><path d="M 7.726562 0.300781 C 11.722656 0.300781 14.707031 -2.644531 14.707031 -6.566406 C 14.707031 -10.46875 11.722656 -13.414062 7.726562 -13.414062 C 3.714844 -13.414062 0.710938 -10.449219 0.710938 -6.566406 C 0.710938 -2.664062 3.714844 0.300781 7.726562 0.300781 Z M 7.726562 -2.382812 C 5.382812 -2.382812 3.601562 -4.203125 3.601562 -6.566406 C 3.601562 -8.929688 5.382812 -10.730469 7.726562 -10.730469 C 10.074219 -10.730469 11.816406 -8.949219 11.816406 -6.566406 C 11.816406 -4.183594 10.074219 -2.382812 7.726562 -2.382812 Z M 7.726562 -2.382812 "/></g></g></g><g fill="#161920" fill-opacity="1"><g transform="translate(355.082161, 354.451153)"><g><path d="M 8.722656 0 L 11.894531 0 L 8.984375 -4.953125 C 10.449219 -5.664062 11.386719 -7.054688 11.386719 -8.777344 C 11.386719 -11.3125 9.417969 -13.128906 6.789062 -13.128906 L 1.5 -13.128906 L 1.5 0 L 4.332031 0 L 4.332031 -4.464844 L 6.152344 -4.464844 Z M 4.332031 -10.503906 L 6.601562 -10.503906 C 7.804688 -10.503906 8.496094 -9.773438 8.496094 -8.796875 C 8.496094 -7.804688 7.804688 -7.089844 6.601562 -7.089844 L 4.332031 -7.089844 Z M 4.332031 -10.503906 "/></g></g></g></svg>